<?xml version="1.0" encoding="UTF-8" standalone="no"?>
<!DOCTYPE svg PUBLIC "-//W3C//DTD SVG 1.1//EN"
 "http://www.w3.org/Graphics/SVG/1.1/DTD/svg11.dtd">
<!-- Generated by graphviz version 2.40.1 (20161225.0304)
 -->
<!-- Title: public.products Pages: 1 -->
<svg width="434pt" height="326pt"
 viewBox="0.00 0.00 434.00 326.00" xmlns="http://www.w3.org/2000/svg" xmlns:xlink="http://www.w3.org/1999/xlink">
<g id="graph0" class="graph" transform="scale(1 1) rotate(0) translate(4 322)">
<title>public.products</title>
<polygon fill="#ffffff" stroke="transparent" points="-4,4 -4,-322 430,-322 430,4 -4,4"/>
<!-- public.products -->
<g id="node1" class="node">
<title>public.products</title>
<polygon fill="#efefef" stroke="transparent" points="46,-226 46,-272 380,-272 380,-226 46,-226"/>
<polygon fill="none" stroke="#000000" points="46,-226 46,-272 380,-272 380,-226 46,-226"/>
<text text-anchor="start" x="103.8589" y="-249.8" font-family="Arial Bold" font-size="18.00" fill="#000000">public.products</text>
<text text-anchor="start" x="224.8873" y="-249.8" font-family="Arial" font-size="14.00" fill="#000000"> </text>
<text text-anchor="start" x="228.7779" y="-249.8" font-family="Arial" font-size="14.00" fill="#666666">[BASE TABLE]</text>
<text text-anchor="start" x="201.3282" y="-235.4" font-family="Arial" font-size="14.00" fill="#333333">商品</text>
<polygon fill="none" stroke="#000000" points="46,-196 46,-226 380,-226 380,-196 46,-196"/>
<text text-anchor="start" x="53" y="-207.4" font-family="Arial" font-size="14.00" fill="#000000">id </text>
<text text-anchor="start" x="67.7798" y="-207.4" font-family="Arial" font-size="14.00" fill="#666666">[integer]</text>
<text text-anchor="start" x="118.3492" y="-207.4" font-family="Arial" font-size="14.00" fill="#000000"> 商品ID: 商品を一意にするID</text>
<polygon fill="none" stroke="#000000" points="46,-166 46,-196 380,-196 380,-166 46,-166"/>
<text text-anchor="start" x="53" y="-177.4" font-family="Arial" font-size="14.00" fill="#000000">name </text>
<text text-anchor="start" x="91.899" y="-177.4" font-family="Arial" font-size="14.00" fill="#666666">[varchar(100)]</text>
<text text-anchor="start" x="179.0182" y="-177.4" font-family="Arial" font-size="14.00" fill="#000000"> 商品名: 商品の名前</text>
<polygon fill="none" stroke="#000000" points="46,-136 46,-166 380,-166 380,-136 46,-136"/>
<text text-anchor="start" x="52.9639" y="-147.4" font-family="Arial" font-size="14.00" fill="#000000">description </text>
<text text-anchor="start" x="124.5319" y="-147.4" font-family="Arial" font-size="14.00" fill="#666666">[varchar(10000)]</text>
<text text-anchor="start" x="227.2163" y="-147.4" font-family="Arial" font-size="14.00" fill="#000000"> 商品説明: 商品詳細説明</text>
<polygon fill="none" stroke="#000000" points="46,-106 46,-136 380,-136 380,-106 46,-106"/>
<text text-anchor="start" x="53" y="-117.4" font-family="Arial" font-size="14.00" fill="#000000">price </text>
<text text-anchor="start" x="87.223" y="-117.4" font-family="Arial" font-size="14.00" fill="#666666">[integer]</text>
<polygon fill="none" stroke="#000000" points="46,-76 46,-106 380,-106 380,-76 46,-76"/>
<text text-anchor="start" x="53" y="-87.4" font-family="Arial" font-size="14.00" fill="#000000">tax_rate </text>
<text text-anchor="start" x="107.4628" y="-87.4" font-family="Arial" font-size="14.00" fill="#666666">[integer]</text>
<polygon fill="none" stroke="#000000" points="46,-46 46,-76 380,-76 380,-46 46,-46"/>
<text text-anchor="start" x="53" y="-57.4" font-family="Arial" font-size="14.00" fill="#000000">created_datetime </text>
<text text-anchor="start" x="165.0336" y="-57.4" font-family="Arial" font-size="14.00" fill="#666666">[timestamp without time zone]</text>
<polygon fill="none" stroke="#000000" stroke-width="3" points="44.5,-44.5 44.5,-273.5 381.5,-273.5 381.5,-44.5 44.5,-44.5"/>
</g>
</g>
</svg>
