<?xml version="1.0" encoding="UTF-8" standalone="no"?>
<!DOCTYPE svg PUBLIC "-//W3C//DTD SVG 1.1//EN"
 "http://www.w3.org/Graphics/SVG/1.1/DTD/svg11.dtd">
<!-- Generated by graphviz version 2.40.1 (20161225.0304)
 -->
<!-- Title: postgres Pages: 1 -->
<svg width="1058pt" height="320pt"
 viewBox="0.00 0.00 1058.00 320.00" xmlns="http://www.w3.org/2000/svg" xmlns:xlink="http://www.w3.org/1999/xlink">
<g id="graph0" class="graph" transform="scale(1 1) rotate(0) translate(4 316)">
<title>postgres</title>
<polygon fill="#ffffff" stroke="transparent" points="-4,4 -4,-316 1054,-316 1054,4 -4,4"/>
<!-- public.products -->
<g id="node1" class="node">
<title>public.products</title>
<polygon fill="#efefef" stroke="transparent" points="43,-223 43,-269 377,-269 377,-223 43,-223"/>
<polygon fill="none" stroke="#000000" points="43,-223 43,-269 377,-269 377,-223 43,-223"/>
<text text-anchor="start" x="100.8589" y="-246.8" font-family="Arial Bold" font-size="18.00" fill="#000000">public.products</text>
<text text-anchor="start" x="221.8873" y="-246.8" font-family="Arial" font-size="14.00" fill="#000000"> </text>
<text text-anchor="start" x="225.7779" y="-246.8" font-family="Arial" font-size="14.00" fill="#666666">[BASE TABLE]</text>
<text text-anchor="start" x="198.3282" y="-232.4" font-family="Arial" font-size="14.00" fill="#333333">商品</text>
<polygon fill="none" stroke="#000000" points="43,-193 43,-223 377,-223 377,-193 43,-193"/>
<text text-anchor="start" x="50" y="-204.4" font-family="Arial" font-size="14.00" fill="#000000">id </text>
<text text-anchor="start" x="64.7798" y="-204.4" font-family="Arial" font-size="14.00" fill="#666666">[integer]</text>
<text text-anchor="start" x="115.3492" y="-204.4" font-family="Arial" font-size="14.00" fill="#000000"> 商品ID: 商品を一意にするID</text>
<polygon fill="none" stroke="#000000" points="43,-163 43,-193 377,-193 377,-163 43,-163"/>
<text text-anchor="start" x="50" y="-174.4" font-family="Arial" font-size="14.00" fill="#000000">name </text>
<text text-anchor="start" x="88.899" y="-174.4" font-family="Arial" font-size="14.00" fill="#666666">[varchar(100)]</text>
<text text-anchor="start" x="176.0182" y="-174.4" font-family="Arial" font-size="14.00" fill="#000000"> 商品名: 商品の名前</text>
<polygon fill="none" stroke="#000000" points="43,-133 43,-163 377,-163 377,-133 43,-133"/>
<text text-anchor="start" x="49.9639" y="-144.4" font-family="Arial" font-size="14.00" fill="#000000">description </text>
<text text-anchor="start" x="121.5319" y="-144.4" font-family="Arial" font-size="14.00" fill="#666666">[varchar(10000)]</text>
<text text-anchor="start" x="224.2163" y="-144.4" font-family="Arial" font-size="14.00" fill="#000000"> 商品説明: 商品詳細説明</text>
<polygon fill="none" stroke="#000000" points="43,-103 43,-133 377,-133 377,-103 43,-103"/>
<text text-anchor="start" x="50" y="-114.4" font-family="Arial" font-size="14.00" fill="#000000">price </text>
<text text-anchor="start" x="84.223" y="-114.4" font-family="Arial" font-size="14.00" fill="#666666">[integer]</text>
<polygon fill="none" stroke="#000000" points="43,-73 43,-103 377,-103 377,-73 43,-73"/>
<text text-anchor="start" x="50" y="-84.4" font-family="Arial" font-size="14.00" fill="#000000">tax_rate </text>
<text text-anchor="start" x="104.4628" y="-84.4" font-family="Arial" font-size="14.00" fill="#666666">[integer]</text>
<polygon fill="none" stroke="#000000" points="43,-43 43,-73 377,-73 377,-43 43,-43"/>
<text text-anchor="start" x="50" y="-54.4" font-family="Arial" font-size="14.00" fill="#000000">created_datetime </text>
<text text-anchor="start" x="162.0336" y="-54.4" font-family="Arial" font-size="14.00" fill="#666666">[timestamp without time zone]</text>
</g>
<!-- public.users -->
<g id="node2" class="node">
<title>public.users</title>
<polygon fill="#efefef" stroke="transparent" points="482,-213 482,-248 689,-248 689,-213 482,-213"/>
<polygon fill="none" stroke="#000000" points="482,-213 482,-248 689,-248 689,-213 482,-213"/>
<text text-anchor="start" x="488.8662" y="-225.8" font-family="Arial Bold" font-size="18.00" fill="#000000">public.users</text>
<text text-anchor="start" x="584.88" y="-225.8" font-family="Arial" font-size="14.00" fill="#000000"> </text>
<text text-anchor="start" x="588.7706" y="-225.8" font-family="Arial" font-size="14.00" fill="#666666">[BASE TABLE]</text>
<polygon fill="none" stroke="#000000" points="482,-183 482,-213 689,-213 689,-183 482,-183"/>
<text text-anchor="start" x="489" y="-194.4" font-family="Arial" font-size="14.00" fill="#000000">id </text>
<text text-anchor="start" x="503.7798" y="-194.4" font-family="Arial" font-size="14.00" fill="#666666">[integer]</text>
<polygon fill="none" stroke="#000000" points="482,-153 482,-183 689,-183 689,-153 482,-153"/>
<text text-anchor="start" x="489" y="-164.4" font-family="Arial" font-size="14.00" fill="#000000">first_name </text>
<text text-anchor="start" x="558.23" y="-164.4" font-family="Arial" font-size="14.00" fill="#666666">[varchar(100)]</text>
<polygon fill="none" stroke="#000000" points="482,-123 482,-153 689,-153 689,-123 482,-123"/>
<text text-anchor="start" x="489" y="-134.4" font-family="Arial" font-size="14.00" fill="#000000">family_name </text>
<text text-anchor="start" x="572.2286" y="-134.4" font-family="Arial" font-size="14.00" fill="#666666">[varchar(10000)]</text>
<polygon fill="none" stroke="#000000" points="482,-93 482,-123 689,-123 689,-93 482,-93"/>
<text text-anchor="start" x="489" y="-104.4" font-family="Arial" font-size="14.00" fill="#000000">zipcode </text>
<text text-anchor="start" x="541.1276" y="-104.4" font-family="Arial" font-size="14.00" fill="#666666">[character(7)]</text>
<polygon fill="none" stroke="#000000" points="482,-63 482,-93 689,-93 689,-63 482,-63"/>
<text text-anchor="start" x="489" y="-74.4" font-family="Arial" font-size="14.00" fill="#000000">address </text>
<text text-anchor="start" x="542.6816" y="-74.4" font-family="Arial" font-size="14.00" fill="#666666">[varchar(100)]</text>
</g>
<!-- public.orders -->
<g id="node3" class="node">
<title>public.orders</title>
<polygon fill="#efefef" stroke="transparent" points="793,-183 793,-218 1007,-218 1007,-183 793,-183"/>
<polygon fill="none" stroke="#000000" points="793,-183 793,-218 1007,-218 1007,-183 793,-183"/>
<text text-anchor="start" x="799.867" y="-195.8" font-family="Arial Bold" font-size="18.00" fill="#000000">public.orders</text>
<text text-anchor="start" x="902.8792" y="-195.8" font-family="Arial" font-size="14.00" fill="#000000"> </text>
<text text-anchor="start" x="906.7698" y="-195.8" font-family="Arial" font-size="14.00" fill="#666666">[BASE TABLE]</text>
<polygon fill="none" stroke="#000000" points="793,-153 793,-183 1007,-183 1007,-153 793,-153"/>
<text text-anchor="start" x="800" y="-164.4" font-family="Arial" font-size="14.00" fill="#000000">id </text>
<text text-anchor="start" x="814.7798" y="-164.4" font-family="Arial" font-size="14.00" fill="#666666">[integer]</text>
<polygon fill="none" stroke="#000000" points="793,-123 793,-153 1007,-153 1007,-123 793,-123"/>
<text text-anchor="start" x="800" y="-134.4" font-family="Arial" font-size="14.00" fill="#000000">product_id </text>
<text text-anchor="start" x="869.244" y="-134.4" font-family="Arial" font-size="14.00" fill="#666666">[integer]</text>
<polygon fill="none" stroke="#000000" points="793,-93 793,-123 1007,-123 1007,-93 793,-93"/>
<text text-anchor="start" x="800" y="-104.4" font-family="Arial" font-size="14.00" fill="#000000">user_id </text>
<text text-anchor="start" x="849.7882" y="-104.4" font-family="Arial" font-size="14.00" fill="#666666">[integer]</text>
</g>
</g>
</svg>
